<svg id="Layer_2" data-name="Layer 2" xmlns="http://www.w3.org/2000/svg" viewBox="0 0 2606.14 1886"><defs><style>.cls-1{fill:none;stroke:#000;stroke-linecap:round;stroke-linejoin:round;stroke-width:2px;}</style></defs><title>upgrader</title><path class="cls-1" d="M1893,848l-10.44,1.77c-3.51-4.42-1.88-7.53,3.46-8.67s10.67-2.13,16-2c10.89.35,20.91-1.81,31.15-5.77,6.79-2.62,12-5.76,13.69-12.42,3.05-12.08,10.8-23,5.69-37.15-2.87-8,2-17.76-1.41-26.85-5.44-14.51-9.23-29.68-15.35-43.86-7.27-16.86-11.46-34.4-16-52-4.82-18.55-10.85-36.53-12.28-56-.89-12.26-6.93-24.15-5.45-37,.61-5.34.65-10.86,2.11-16,5.71-19.9,8.45-39.55,2.21-60.13-2.65-8.73-1.18-18.63-2.44-27.89-2.18-16.05,2.18-31.38,3.59-47.06,2.09-23.22-.83-46.75,4.12-70,1.3-6.11-2-13.32-3.67-19.9-1.56-6.21-2.34-12.19,1.07-18,4.68-8,3.2-16.48,2.07-25-.7-5.28-.83-10.65-1-16-.24-5.87-2.14-10-9-9-12.68,1.92-25.29,4.32-38,5.84a77.53,77.53,0,0,1-20,0c-38.28-5.48-76-15.51-115-14.72a406.16,406.16,0,0,1-69-4.83c-13.74-2.07-28-1.2-42-1.27-29.67-.15-59.35.47-89-.2-27.35-.62-54.69-4-82-3.51-43.36.74-86.66,4.15-130,5.42-17,.49-34-2.39-51-2.58-16-.18-32,1.12-48,1.84-4,.18-8,.75-12,1-25.67,1.37-51.34,2.5-77,4.09-15.68,1-31.55,4.86-47,3.37-20.58-2-40.18.86-60.09,4.34-4.74.83-9.94-1.47-15-1.7-7.32-.32-14.67-.08-22-.08-13.67,0-27.52-1.39-41,.38-14.35,1.88-29.12-4.33-43.19,3.36-4.78,2.62-11.16,2.67-16.87,3.16-8.3.72-16.66,1-25,1.05-24.45.05-48.83,1-73,5.06-1.35.23-2.69,1-4,.93-13.67-.91-27.32-2.21-41-2.88-19-.92-38-1.29-57-2.09-20.67-.87-41.33-2-62-3" transform="translate(-150 -208)"/><path class="cls-1" d="M1027,629c-28-.67-56-1.58-84-1.91-16.33-.18-32.67.46-49,.95-9.58.29-21.8,13.42-22,23-.58,25.33-.33,50.75-2.4,76a53.54,53.54,0,0,0,6.61,30.95c8.4,15.5,7.05,31.24,2.66,47.05-2.7,9.74-7,19-9.37,25.48-16.22,1-29.86,1.55-43.47,2.61-18.68,1.46-37.3,3.82-56,4.81-23.3,1.24-46.66,1.44-70,2.17-4.67.14-9.33.64-14,1" transform="translate(-150 -208)"/><path class="cls-1" d="M613,603q-3-31.5-6-63c-2-21.33-5.38-42.65-5.66-64C601,447.35,603,418.67,604,390c.65-18.33,1-36.68,2.09-55,.88-15,2.75-30,3.85-45,.67-9.31,1.65-18.75.83-28-1-11.42-3.59-22.73-6-34-.3-1.37-3.78-2.94-5.77-2.92-26.67.39-53.33-4.94-80-.13" transform="translate(-150 -208)"/><path class="cls-1" d="M1075,461c17.35-4.77,34.82-7.43,53-6.21,15.28,1,30.68.21,48.52.21-1.62,12.86-2.24,24.62-4.83,35.93-1.64,7.12-1.26,12.84,2.2,19.13,5.34,9.73,4.51,20.25,3.22,30.95-2.12,17.62-3.23,35.35-5.17,53-2.8,25.36-6,50.68-9,76" transform="translate(-150 -208)"/><path class="cls-1" d="M1083,467c-2,10-4.26,20-5.94,30-2.56,15.3-4.73,30.66-7.06,46-.35,2.33-1.43,4.87-.88,7,5.65,21.72,1.26,43.34.1,65-.4,7.59,2.41,15.31,2.63,23,.29,10.32-.32,20.68-.92,31-.44,7.63,1.83,9.87,10.07,9,13-1.36,26-2.85,39-3.93,5.62-.47,11.36.31,17-.2,4.72-.42,9.34-1.88,14-2.88" transform="translate(-150 -208)"/><path class="cls-1" d="M681,909c-12.33,1.67-24.7,3.11-37,5.06-13,2.07-26,4.76-39,6.82-2.87.46-6.51.36-8.89-1-12.49-7.31-25.06-4.64-38.12-2-22.4,4.51-44.72,10.48-68,8.13-4.68-.47-9.39-2.1-14-1.8-9.09.6-18.12,2.18-27.22,3.36.93-6.57,2.68-14.52,3.07-22.54.56-11.64.9-23.39-.05-35-1.21-14.74-4-29.33-5.74-44-1.33-11.29-2.07-22.66-3.07-34" transform="translate(-150 -208)"/><path class="cls-1" d="M525,234c-1,19.67-2.4,39.33-2.81,59a99.23,99.23,0,0,0,2.93,24c6.89,29.82-1.31,59.35-1.32,89,0,8-3.77,16-3.57,24,.75,29,1.59,58.09,4.19,87a151,151,0,0,1-1,33.09c-.94,7.42,1.94,15.26,2.53,23,.48,6.29.93,12.79-.08,19C524,603.11,528.36,607.84,539,605a19.7,19.7,0,0,1,6-1c15.67.89,31.32,2.14,47,2.87,10.56.49,20.87-.86,30-6.93" transform="translate(-150 -208)"/><path class="cls-1" d="M162,348c6.67,1,13.37,1.79,20,3,17,3.21,34,6.91,51,9.82,6.86,1.17,14.45-.66,20.89,1.43,15.63,5.07,31.3,3.74,47.09,2.7,19.67-1.29,39.32-3.16,59-3.8,11.63-.38,23.32,1.14,35,1.81" transform="translate(-150 -208)"/><path class="cls-1" d="M640,791c-1.33-1.33-2.57-3.71-4-3.85-25.68-2.48-51.25-1.71-77,.45s-52,1-78,1.42q-23,.35-46,1.11c-.69,0-1.33,1.87-2,2.87" transform="translate(-150 -208)"/><path class="cls-1" d="M1335,519c-14,1.67-28,4.16-42,4.81-22.3,1-44.66.8-67,1.21-11.67.21-23.33.65-35,1" transform="translate(-150 -208)"/><path class="cls-1" d="M821,585c-.15-9-4.59-9.89-13-9.32-32,2.13-64,3.06-96,4.29-13.66.52-27.35,1.23-41,.83-8-.23-16-3-24-3.63-6.94-.5-14,.58-21,.8-4.66.15-9.33,0-14,0" transform="translate(-150 -208)"/><path class="cls-1" d="M1770,959c-14.33,2.67-28.58,6.59-43,7.62-12.2.86-24.7-2.9-37-2.34-21.38,1-42.77,3.09-64,6.09-6.67,1-12.72,6.3-19,9.63" transform="translate(-150 -208)"/><path class="cls-1" d="M1057,579c-21.67,1-43.33,2.58-65,2.87-34.34.46-68.75,3.2-103-1.87" transform="translate(-150 -208)"/><path class="cls-1" d="M2103,238c-10.42-2.84-30.31,8.25-31.94,18-.8,4.76.28,8.58,5.92,10.08a161.4,161.4,0,0,1,18,6c4.44,1.75,8.61,4.2,14.43,7.09A105.35,105.35,0,0,1,2075,300" transform="translate(-150 -208)"/><path class="cls-1" d="M1757,830c-10,1-20.08,1.51-30,3.09-37.11,5.88-74.26,10.87-112,9-11.32-.56-11,.12-8.23,11,1.6,6.35.94,13.27,1.22,19.94,1,24,2.28,48,2.83,72,.16,6.64-2.18,13.31-2.66,20-.24,3.27,1.17,6.66,1.84,10" transform="translate(-150 -208)"/><path class="cls-1" d="M1880,848c-5.33,0-10.67.07-16,0-32.48-.47-64.31,4.61-96,11" transform="translate(-150 -208)"/><path class="cls-1" d="M1765,828c-5.56,1-7.85,3.76-8.24,10a411.66,411.66,0,0,1-5,46c-2.61,14.84-.92,29.1,3.53,42.94,2,6.26,2,11.17-.06,17.19-1.59,4.56-.92,9.91-1.25,14.91" transform="translate(-150 -208)"/><path class="cls-1" d="M1891,491a247.68,247.68,0,0,1-53-.53c-12.74-1.4-26,1.53-39,2.53" transform="translate(-150 -208)"/><path class="cls-1" d="M1492,654c-3,7.67-6.58,15.17-8.81,23-1.76,6.2-5.41,9.9-11.18,9.75-10.36-.28-21.11-.3-30.91-3.13-16.9-4.89-33.39-2.3-52.38-1.33q4.29-115.05,8.65-231.7c12.24-2.31,25.12-6.43,39.88-1.36,8.64,3,19.82-.85,29.73-2.39,12.07-1.87,24-4.69,36-6.78,2.54-.44,5.31.5,6.4.63,11.28,15.3,5,32.33,7.19,48.31.79,5.66-2.86,12-4.63,17.95-3.94,13.34-8,26.65-11.94,40a42.61,42.61,0,0,0-2,10c-.81,20.66-1.3,41.34-2.11,62-.43,11-1.3,22-2,33h11" transform="translate(-150 -208)"/><path class="cls-1" d="M1674,709c4.59,19.2,3.4,38.56,2.13,58-.73,11.28-.13,22.66-.13,34" transform="translate(-150 -208)"/><path class="cls-1" d="M2069,672c-12.63,4.07-13.53,4.77-18.71,15.47l33.5,5.06c-2.47,11.65-9.65,15.23-18.79,16.47" transform="translate(-150 -208)"/><path class="cls-1" d="M2087,306c1,4.67,1,9.89,3.27,13.84s4.7,6.46-.07,10.4c-1.31,1.08-.11,5.1-.22,7.76-.62,15.18-.66,30.37-5.82,45.06-2,5.65-2.16,11.94-3.16,17.94" transform="translate(-150 -208)"/><path class="cls-1" d="M683,799c2.7,35.67,5.3,71.32.18,107-.36,2.47,1.82,5.3,2.82,8l5-3" transform="translate(-150 -208)"/><path class="cls-1" d="M1595,489c-22.67.33-45.33.63-68,1-3,0-6,.63-9,1" transform="translate(-150 -208)"/><path class="cls-1" d="M2100,551c.67,6.67,2.07,13.36,1.84,20-.43,12-1.91,24-2.77,36-.14,2,.6,4,.93,6" transform="translate(-150 -208)"/><path class="cls-1" d="M1601,646l-33.45-4.25c-.79,2.55-1.85,6-2.28,7.39L1505,652" transform="translate(-150 -208)"/><path class="cls-1" d="M1764,654c-9.51-6.77-9.54-7.08,1-15.63.4,5.87,1.62,10.42.83,14.6-2.92,15.41-6.7,30.66-9.64,46.07-.45,2.39,1.8,5.29,2.8,8" transform="translate(-150 -208)"/><path class="cls-1" d="M2109,703c-3.09,12.19-7.8,24.07-9,36.63l2.3.85L2113,733" transform="translate(-150 -208)"/><path class="cls-1" d="M489,371l5.22-10c-3.17,0-5.48-.65-7.17.1-11.09,4.92-22,5.33-33.11,0-1.9-.91-4.61-.13-6.94-.13" transform="translate(-150 -208)"/><path class="cls-1" d="M1833,935c-14.67.33-29.33.62-44,1.08-1.35,0-2.67,1.25-4,1.92" transform="translate(-150 -208)"/><path class="cls-1" d="M960,651c1.67,11,3.51,22,4.89,33,.38,3.07,1.86,7.53-3.89,8" transform="translate(-150 -208)"/><path class="cls-1" d="M571,845l16-10.89c-3.29-3.79-4.79-6.77-7.15-7.83-1.7-.76-6.21.55-6.59,1.81-1.67,5.46-3.16,11.26-3.07,16.91.11,7.34,1.78,14.67,2.78,22" transform="translate(-150 -208)"/><path class="cls-1" d="M1511,903c-3.67,2.33-8.17,4-10.81,7.16-4.41,5.3-1.85,14.94,3.81,17.84,3.34,1.71,17.47-1.88,19-5,2.17-4.59,4-9.31,6-14" transform="translate(-150 -208)"/><path class="cls-1" d="M1092,752c4.61-.12,9.3.33,9.82,6,.31,3.24,0,8.32-2,9.63-4.25,2.8-10.2,5.76-14.66,4.83-5.8-1.21-3.59-8.35-2.71-12.39.67-3.1,4.93-5.42,7.6-8.09" transform="translate(-150 -208)"/><path class="cls-1" d="M2166,699v-8.84c-7.52,2.73-13.4,7.71-10.47,13.58,3.54,7.09,11.59,6.81,18.47,2.26" transform="translate(-150 -208)"/><path class="cls-1" d="M2120,480c0,7,.17,14-.05,21-.23,7.56-4.39,11.51-11.95,12a25.71,25.71,0,0,0-6,1c-9.09,2.91-11.69,1.16-13-9" transform="translate(-150 -208)"/><path class="cls-1" d="M164,408c6.7.86,9.7-1.06,7-8.95-16.08,15.1-19.06,26.33-9.25,35.67L177,423" transform="translate(-150 -208)"/><path class="cls-1" d="M1368.5,516c-12.17-4.33-24.31-8.75-36.54-12.89-1.39-.47-3.29.56-5,.89" transform="translate(-150 -208)"/><path class="cls-1" d="M2090,429c2.1,13.95-3.07,26.81-6,40-1.33,5.9-2.91,11.74-4.38,17.6l2.08,1.17L2087,483" transform="translate(-150 -208)"/><path class="cls-1" d="M2147,443c-1.46,3.39-2.48,7.41,3,6.77a34.64,34.64,0,0,0,14.87-5c4.89-3.27,3.76-7.52-1.86-9.71a68.09,68.09,0,0,0-8-2.05" transform="translate(-150 -208)"/><path class="cls-1" d="M788,296c-.67,2.67-2.19,5.46-1.82,8,.7,4.76,1.23,10.66,4.25,13.58,2.07,2,8.28,0,12.55-.67,1.78-.29,3.35-1.88,5-2.88" transform="translate(-150 -208)"/><path class="cls-1" d="M1706,477l-12.56,3.77c6.71-11.45,9.53-11.44,15.57-1.78,1.27,2,2.65,4,4,6,8.9,13.26,6.44,19.28-9,22" transform="translate(-150 -208)"/><path class="cls-1" d="M2085,310c-6,11.33-11.95,22.69-18.05,34-1,1.85-2.62,3.36-3.95,5" transform="translate(-150 -208)"/><path class="cls-1" d="M1857,821a33.64,33.64,0,0,0,5,1c4.88.21,9.14-1,8.92-7-.24-6.24-4.71-7.52-9.91-6.94a63.08,63.08,0,0,0-8,1.94" transform="translate(-150 -208)"/><path class="cls-1" d="M814,562c8,6.44,17.46,6.18,27,6.12,3.46,0,6.93,1.33,10.4,2-.09.7-.17,1.4-.26,2.11-9,4.57-18.29,8.8-27,13.9-3.29,1.91-5.43,5.82-8.1,8.82" transform="translate(-150 -208)"/><path class="cls-1" d="M1818,789c.33,4,.68,8,1,12,.34,4.33,1.88,9,.74,12.92-2.25,7.7,1.65,8.28,7.26,8.08" transform="translate(-150 -208)"/><path class="cls-1" d="M1654,437c.33,15.33.89,30.67.87,46,0,4.79,2.91,5.72,6.13,7" transform="translate(-150 -208)"/><path class="cls-1" d="M1058,745c.78,12.39-2.44,25.22,4,37" transform="translate(-150 -208)"/><path class="cls-1" d="M1948,503c6-12.08,6-12-7-14-10-1.55-20-3.31-30-5" transform="translate(-150 -208)"/><path class="cls-1" d="M2114,434c-9.53-.19-10.84,8.43-15.81,14.35,7.94,3,11.44-2.78,15.81-6.35" transform="translate(-150 -208)"/><path class="cls-1" d="M1610,487l-21.69,17.91c-1.7-5.48-3-9.69-4.31-13.91" transform="translate(-150 -208)"/><path class="cls-1" d="M2045,493q-3.49,19-7,38" transform="translate(-150 -208)"/><path class="cls-1" d="M852,319c-3.72-6.8-4.71-12.61,1.73-19.26,4.61-4.77,4.07-11.68-2.29-18.39-.65,3.9-1.41,6.28-1.37,8.65.14,7.65-3.37,8.19-9.07,5" transform="translate(-150 -208)"/><path class="cls-1" d="M1188.5,746a9.46,9.46,0,0,1-2.48-1c-4.51-3.62-10.86-6.76-14.51-2.53-2.63,3.07-.51,10.23-.51,15.56" transform="translate(-150 -208)"/><path class="cls-1" d="M518,825c.94,11.43,1.88,22.85,2.86,34.82,8.81-2.48,14-10.23,22.74-6.07-2.34,4.71-4.64,8.91-6.51,13.29-.6,1.41-.72,4.27,0,4.76,1.56,1,4.34,1.77,5.78,1,4.25-2.19,8.09-5.16,12.09-7.83" transform="translate(-150 -208)"/><path class="cls-1" d="M1917,925c2.13-5.4.34-9.59-4-13-9.1,3.06-13.07,10.07-13.91,19-.73,7.63,5.47,12.93,12.88,10.85,4.22-1.19,7.57-3.66,12.16,0,5.63,4.47,11,.27,13.53-4.06,2.28-3.92-1.07-8.22-5.68-9.7-3.4-1.1-7.07-1.37-10.62-2-.32,1.08-.64,2.15-.95,3.23L1929,933" transform="translate(-150 -208)"/><path class="cls-1" d="M213,291c-5.95,1.79-9.3,7.51-6.9,12.95s5.24,6.15,11.23,2.6c3.49-2.06,10.64-4.81,15.67.45" transform="translate(-150 -208)"/><path class="cls-1" d="M1576,477c1.3-6.13,4.06-4.23,8.08-2.15a175.83,175.83,0,0,0,25,10.91c4.2,1.4,9.25.24,13.92.24" transform="translate(-150 -208)"/><path class="cls-1" d="M1954,470c3.92,3.74,6.81,8.41,14.1,6.34,4.19-1.19,9.36,1,15,1.84-8.38,11.32-21.52,8.4-31,13.82" transform="translate(-150 -208)"/><path class="cls-1" d="M219,419c-2.71,3.94-8.17,7.24-2.58,13.72L222,426l9,3" transform="translate(-150 -208)"/><path class="cls-1" d="M717,537c-2,.33-4.31.15-5.93,1.12-2.6,1.56-6.26,3.55-6.78,5.94-1.49,6.88,2.6,8.6,8.71,6.94" transform="translate(-150 -208)"/><path class="cls-1" d="M1867,922h-25c-4.79,0-10.13-.65-9,7" transform="translate(-150 -208)"/><path class="cls-1" d="M1987,927l6,1.53-2.79,4.2-25.34,3.92c-1-11.38-1.95-21-2.84-30.65" transform="translate(-150 -208)"/><path class="cls-1" d="M1722,457c.67,5.67.44,11.63,2.19,16.94,3.18,9.6,11.22,13.28,20.81,14.06" transform="translate(-150 -208)"/><path class="cls-1" d="M1206,775l-12,28" transform="translate(-150 -208)"/><path class="cls-1" d="M428,357c-7.33,4.33-14.52,9-22.1,12.8-2,1-6.14.44-7.64-1.06s-1.71-5.28-1.08-7.69c1-3.84,3.15-7.38,4.82-11.05" transform="translate(-150 -208)"/><path class="cls-1" d="M1021,616c6.67,1.67,13.42,3,20,5.14,2.6.83,4.71,3.19,7,4.86" transform="translate(-150 -208)"/><path class="cls-1" d="M1675,653c6.25-2.34,4.64-5.56-.63-10.55-2.62,4.81-6.56,9.08-6.85,13.58-.22,3.33,3.77,8.06,9.48,5" transform="translate(-150 -208)"/><path class="cls-1" d="M2059,494c-12.39-3.72-24.61-5.12-36,3a35.85,35.85,0,0,0-4,4" transform="translate(-150 -208)"/><path class="cls-1" d="M809,305c.27,2.17.54,4.34,1,8.11l16-7.1c.66.32,1.82.56,1.91,1,.8,4,1.41,8,2.08,12,3.33-1.67,6.64-3.38,10-5,2.29-1.09,4.66-2,7-3" transform="translate(-150 -208)"/><path class="cls-1" d="M1375,516c-1.33-.33-3.14-1.4-3.93-.89-9.49,6.09-18.83,12.42-28.71,19-6-4.15-3.76-11.32-5.36-17.13" transform="translate(-150 -208)"/><path class="cls-1" d="M2755,2073c-1-6.33-1.54-12.8-3.28-18.92-.53-1.85-4.39-2.75-6.72-4.08" transform="translate(-150 -208)"/><path class="cls-1" d="M254,428c4.93,6,15.38,4.92,18.2,13.94.14.47,3.39.6,4.75-.05,2.92-1.4,2.8-7.24.05-10.89" transform="translate(-150 -208)"/><path class="cls-1" d="M1704,657c.67-1.33,1.33-2.67,2-4-2.67-.33-5.76-1.67-7.9-.76-3.15,1.33-5.62,4.26-8.39,6.52,5.86,7.77,9.41,2.06,13.29.24" transform="translate(-150 -208)"/><path class="cls-1" d="M1135,749l-3,26" transform="translate(-150 -208)"/><path class="cls-1" d="M435,356c-.67.33-1.48,1.1-2,.94-12.69-4.26-25.35-8.61-38-12.94" transform="translate(-150 -208)"/><path class="cls-1" d="M2058,419q.49,23,1,46" transform="translate(-150 -208)"/><path class="cls-1" d="M2154,505c-3.67,1-7.43,1.75-11,3.05-6.95,2.55-10.18.28-10.08-7,3.82-3.68,14.22-1.8,8.41-13.05L2136,498" transform="translate(-150 -208)"/><path class="cls-1" d="M653,835c.33,3.67.77,7.33,1,11,.41,7,.69,14,1,21" transform="translate(-150 -208)"/><path class="cls-1" d="M866,304c-6,5.41-3.22,11.72-2.15,18,.31,1.83-1.18,4-1.85,6-1-.67-2-1.3-3-2-.16-.12,0-.64,0-1" transform="translate(-150 -208)"/><path class="cls-1" d="M1641,620c-6.41,5.86-2.32,13.36-2.7,20-.25,4.24,2.37,8.65,3.7,13" transform="translate(-150 -208)"/><path class="cls-1" d="M1528,914l9,5.8c-3.23,12.14-6.49,13.44-15,6.2" transform="translate(-150 -208)"/><path class="cls-1" d="M971,695l6-7c1.33,2.33,2.6,4.71,4,7,.88,1.41,2,3.82,3,3.82,6.33,0,12.67-.48,19-.81" transform="translate(-150 -208)"/><path class="cls-1" d="M717,209q2,11,4,22" transform="translate(-150 -208)"/><path class="cls-1" d="M1754,448q1,11,2,22" transform="translate(-150 -208)"/><path class="cls-1" d="M2119,421c-.56,8.32-5.77,16.43-1,25,2,3.65,3.39,8.07,9,5" transform="translate(-150 -208)"/><path class="cls-1" d="M756,232l9.68-6.49c2.3,5.36,4,9.34,6.11,14.21L761,247" transform="translate(-150 -208)"/><path class="cls-1" d="M1174,760c4.67,3,9.23,6.19,14.08,8.86,1.14.62,3.25-.53,4.92-.86" transform="translate(-150 -208)"/><path class="cls-1" d="M2141,431c-9.21,3.09-8.2,10.73-8,18" transform="translate(-150 -208)"/><path class="cls-1" d="M2070,437c1.41,9.26,7.43,13.9,16,16" transform="translate(-150 -208)"/><path class="cls-1" d="M2076,609l12,20" transform="translate(-150 -208)"/><path class="cls-1" d="M518,845c-1.67.33-3.34,1-5,.94-6.45-.22-10.49,1.12-8.12,9.1,1.33,4.47,1.45,9.29,2.12,14" transform="translate(-150 -208)"/><path class="cls-1" d="M256,413c-1.64,7.82-4.59,14.82-12,19" transform="translate(-150 -208)"/><path class="cls-1" d="M2040,415c0,6,.11,12,0,18-.26,11.33-.65,22.67-1,34" transform="translate(-150 -208)"/><path class="cls-1" d="M1905,817l-20-7" transform="translate(-150 -208)"/><path class="cls-1" d="M673,523q3.5,10,7,20" transform="translate(-150 -208)"/><path class="cls-1" d="M941,661q.5,10,1,20" transform="translate(-150 -208)"/><path class="cls-1" d="M2181,487c1,12,2.93,14.42,12,15" transform="translate(-150 -208)"/><path class="cls-1" d="M816,213c.69,6.47-2.2,13.69,4,19" transform="translate(-150 -208)"/><path class="cls-1" d="M2126,698c5.9,1.09,10.67,3.26,14.35,8.77,1.59,2.38,7,2.23,10.65,3.23" transform="translate(-150 -208)"/><path class="cls-1" d="M725,287c11.1,5.18,20.26,11.78,19,26" transform="translate(-150 -208)"/><path class="cls-1" d="M695,551c-2.24-4.25-4.47-8.51-6.46-12.29-12.4,2.36-8.11,12-10.54,18.29" transform="translate(-150 -208)"/><path class="cls-1" d="M1553,899c-4.19,5.61-5.51,11.54-2,18" transform="translate(-150 -208)"/><path class="cls-1" d="M736,297c-14,11-14,11-9,26" transform="translate(-150 -208)"/><path class="cls-1" d="M1929,798l-18-2" transform="translate(-150 -208)"/><path class="cls-1" d="M784,215q.5,10,1,20" transform="translate(-150 -208)"/><path class="cls-1" d="M265,295c-9.39.34-8.77,7.83-10,14.15-7.44-.7-7.45-7.47-10-12.15" transform="translate(-150 -208)"/><path class="cls-1" d="M1641,661l4.78-11,2.61.53c2.7,6.88,6.29,12.64,14.61,12.49" transform="translate(-150 -208)"/><path class="cls-1" d="M788,534c-4.21,9.82-2.12,19.43,1,29" transform="translate(-150 -208)"/><path class="cls-1" d="M497,831c4.77,3.79,4.47,3.85,5.09,7s1.91,6,2.91,9" transform="translate(-150 -208)"/><path class="cls-1" d="M2117,684c-6.91,3-6,9.2-6,15" transform="translate(-150 -208)"/><path class="cls-1" d="M277,305c5.26,3.05,10.23,7.34,17,4" transform="translate(-150 -208)"/><path class="cls-1" d="M599,833c-1,8-2.57,16-2.6,24,0,2,4.86,5.49,7.62,5.63,3.59.18,7.73-1.69,10.84-3.83,2.22-1.53,3.13-5,4.73-7.71-9.11-1.35-11.86,3.68-12.59,10.91" transform="translate(-150 -208)"/><path class="cls-1" d="M185,292l3,17" transform="translate(-150 -208)"/><path class="cls-1" d="M750,533c-3.58,7.92,2,11.84,7.34,17.38L766,533" transform="translate(-150 -208)"/><path class="cls-1" d="M1195,744c-8.33,5-17.1,9.44-24.72,15.36-2.15,1.66-1,7.64-1.28,11.64" transform="translate(-150 -208)"/><path class="cls-1" d="M1055,626c-3.67,1.33-7.62,2.18-10.93,4.12-4.29,2.51-8.07,5.88-12.07,8.88" transform="translate(-150 -208)"/><path class="cls-1" d="M1038,743l3,16" transform="translate(-150 -208)"/><path class="cls-1" d="M203,417c-8.45.23-7.88,8.78-12,13" transform="translate(-150 -208)"/><path class="cls-1" d="M1858,925l-15,11" transform="translate(-150 -208)"/><path class="cls-1" d="M151,277l8.14-.63c.93,9.88,1.89,20.25,2.86,30.63" transform="translate(-150 -208)"/><path class="cls-1" d="M1599,907c-6.65-1.1-10.84,1.8-13,8" transform="translate(-150 -208)"/><path class="cls-1" d="M941,684l3,15" transform="translate(-150 -208)"/><path class="cls-1" d="M2184,503l-13,10" transform="translate(-150 -208)"/><path class="cls-1" d="M2072,509c-1.22-5-3.12-5.74-6-1-1.26,2.05-2.66,4-4,6" transform="translate(-150 -208)"/><path class="cls-1" d="M2057,443l-15,3" transform="translate(-150 -208)"/><path class="cls-1" d="M2163,492c-7.12,3.86-8.22,9.84-6,17" transform="translate(-150 -208)"/><path class="cls-1" d="M634,851c.32,4.74-2,11.35,7,10" transform="translate(-150 -208)"/><path class="cls-1" d="M1881,795q1,9,2,18" transform="translate(-150 -208)"/><path class="cls-1" d="M2094,693c10.47,12.57,16.57,12.08,25-2" transform="translate(-150 -208)"/><path class="cls-1" d="M1568,918c5.17,5.5,10.33,2.26,15.5,0" transform="translate(-150 -208)"/><path class="cls-1" d="M1763,471l-22-1" transform="translate(-150 -208)"/><path class="cls-1" d="M1908,782c.67,5.33,1.29,10.67,2,16,.6,4.34,1.32,8.67,2,13" transform="translate(-150 -208)"/><path class="cls-1" d="M299,295c-4.53,8.21-.51,19.7-10,26" transform="translate(-150 -208)"/><path class="cls-1" d="M2114,609l-23,6" transform="translate(-150 -208)"/><path class="cls-1" d="M2242,685q-2,9-4,18" transform="translate(-150 -208)"/><path class="cls-1" d="M1956,478c-4.41,2.35-8.75,4.74-7,11" transform="translate(-150 -208)"/><path class="cls-1" d="M2097,622q-.49,6.5-1,13" transform="translate(-150 -208)"/><path class="cls-1" d="M2098,616a19.29,19.29,0,0,1-2,4c-8.91,10.47-8.94,10.45,1,20" transform="translate(-150 -208)"/><path class="cls-1" d="M191,290l-29,3" transform="translate(-150 -208)"/><path class="cls-1" d="M2753,2081q-2,6-4,12" transform="translate(-150 -208)"/><path class="cls-1" d="M1195,767c5.67,3.33,11.49,6.44,16.89,10.16,1.39,1,1.44,3.84,2.11,5.84" transform="translate(-150 -208)"/><path class="cls-1" d="M1716,654l12,3" transform="translate(-150 -208)"/><path class="cls-1" d="M1590,647l-12,6" transform="translate(-150 -208)"/><path class="cls-1" d="M1550,919c-2.23,3.9-4.41,7.79,1,11" transform="translate(-150 -208)"/><path class="cls-1" d="M2192,697l14.79-4c-.41,6.62-.7,11.23-1,15.84l2.53.66,12.13-8.72c-.16,3.55,9.21.39,4.53,7.25" transform="translate(-150 -208)"/><path class="cls-1" d="M1683,452l-12,2" transform="translate(-150 -208)"/><path class="cls-1" d="M2133,489l-11,1" transform="translate(-150 -208)"/><path class="cls-1" d="M1728,651c-.52,6.25,9,10.83,3,18" transform="translate(-150 -208)"/><path class="cls-1" d="M1117,757q-1,5.5-2,11" transform="translate(-150 -208)"/><path class="cls-1" d="M2188,685a78.6,78.6,0,0,1,1.93,9c.4,3.94,5.19,9.27-2.93,11" transform="translate(-150 -208)"/><path class="cls-1" d="M1577,645c-.6,6.16,1.94,13.43-6,17" transform="translate(-150 -208)"/><path class="cls-1" d="M805,232l-9.31-3.87L787,233" transform="translate(-150 -208)"/><path class="cls-1" d="M2058,505l3,14" transform="translate(-150 -208)"/><path class="cls-1" d="M2129,690c-1.67,3.67-3.78,7.2-4.88,11-1.2,4.19-1.45,8.64-2.12,13" transform="translate(-150 -208)"/><path class="cls-1" d="M2743,1985c8.63,5.69,13,13.5,12,24" transform="translate(-150 -208)"/><path class="cls-1" d="M1829,981l-8,2" transform="translate(-150 -208)"/><path class="cls-1" d="M2228,705c10.79-3.06,18.9,1.14,27,14" transform="translate(-150 -208)"/><path class="cls-1" d="M645,841l18,1" transform="translate(-150 -208)"/><path class="cls-1" d="M949,682l-16,3" transform="translate(-150 -208)"/><path class="cls-1" d="M725,547l16-5" transform="translate(-150 -208)"/><path class="cls-1" d="M2753,2015l-3,8" transform="translate(-150 -208)"/><path class="cls-1" d="M224,296l-4,8" transform="translate(-150 -208)"/><path class="cls-1" d="M1050,757l-12.2,4.31L1043,770" transform="translate(-150 -208)"/><path class="cls-1" d="M1571,913c-5.25,4.36-9.77,11.36-18,5" transform="translate(-150 -208)"/><path class="cls-1" d="M2056,509l-5,6" transform="translate(-150 -208)"/><path class="cls-1" d="M2109,236l-11,10" transform="translate(-150 -208)"/><path class="cls-1" d="M1911,247l-5.87,3.9c.29,2.42.58,4.76.87,7.1" transform="translate(-150 -208)"/><path class="cls-1" d="M1842,808v13" transform="translate(-150 -208)"/><path class="cls-1" d="M186,426l6,11" transform="translate(-150 -208)"/><path class="cls-1" d="M753,297l-7,6" transform="translate(-150 -208)"/><path class="cls-1" d="M1888,844c.33,1.33.67,2.67,1,4" transform="translate(-150 -208)"/><path class="cls-1" d="M1917,491l-2,2" transform="translate(-150 -208)"/></svg>